<?xml version="1.0" encoding="UTF-8"?>
<!DOCTYPE svg PUBLIC "-//W3C//DTD SVG 1.1//EN" "http://www.w3.org/Graphics/SVG/1.1/DTD/svg11.dtd">
<svg xmlns="http://www.w3.org/2000/svg" version="1.1" width="54px" height="44px" style="shape-rendering:geometricPrecision; text-rendering:geometricPrecision; image-rendering:optimizeQuality; fill-rule:evenodd; clip-rule:evenodd" xmlns:xlink="http://www.w3.org/1999/xlink">
<g><path style="opacity:1" fill="#000000" d="M -0.5,-0.5 C 17.5,-0.5 35.5,-0.5 53.5,-0.5C 53.5,14.1667 53.5,28.8333 53.5,43.5C 35.5,43.5 17.5,43.5 -0.5,43.5C -0.5,28.8333 -0.5,14.1667 -0.5,-0.5 Z"/></g>
<g><path style="opacity:1" fill="#53fb18" d="M 9.5,5.5 C 13.8333,5.5 18.1667,5.5 22.5,5.5C 22.5,7.83333 22.5,10.1667 22.5,12.5C 23.8333,12.5 25.1667,12.5 26.5,12.5C 26.5,11.5 26.5,10.5 26.5,9.5C 27.8333,9.5 29.1667,9.5 30.5,9.5C 30.5,8.16667 30.5,6.83333 30.5,5.5C 34.8333,5.5 39.1667,5.5 43.5,5.5C 43.5,9.16667 43.5,12.8333 43.5,16.5C 42.1667,16.5 40.8333,16.5 39.5,16.5C 39.5,17.5 39.5,18.5 39.5,19.5C 38.1667,19.5 36.8333,19.5 35.5,19.5C 35.5,20.8333 35.5,22.1667 35.5,23.5C 36.8333,23.5 38.1667,23.5 39.5,23.5C 39.5,24.5 39.5,25.5 39.5,26.5C 40.8333,26.5 42.1667,26.5 43.5,26.5C 43.5,30.1667 43.5,33.8333 43.5,37.5C 39.1667,37.5 34.8333,37.5 30.5,37.5C 30.5,36.1667 30.5,34.8333 30.5,33.5C 29.1667,33.5 27.8333,33.5 26.5,33.5C 26.5,32.5 26.5,31.5 26.5,30.5C 25.1667,30.5 23.8333,30.5 22.5,30.5C 22.5,32.8333 22.5,35.1667 22.5,37.5C 18.1667,37.5 13.8333,37.5 9.5,37.5C 9.5,26.8333 9.5,16.1667 9.5,5.5 Z"/></g>
</svg>
